<?xml version="1.0" encoding="UTF-8" standalone="no"?>
<svg
   xmlns:dc="http://purl.org/dc/elements/1.1/"
   xmlns:cc="http://creativecommons.org/ns#"
   xmlns:rdf="http://www.w3.org/1999/02/22-rdf-syntax-ns#"
   xmlns:svg="http://www.w3.org/2000/svg"
   xmlns="http://www.w3.org/2000/svg"
   id="svg2"
   viewBox="0 0 541.57067 157.56784"
   version="1.1"
   width="152.84mm"
   height="44.469mm">
  <defs
     id="defs66" />
  <metadata
     id="metadata4">
    <rdf:RDF>
      <cc:Work
         rdf:about="">
        <dc:format>image/svg+xml</dc:format>
        <dc:type
           rdf:resource="http://purl.org/dc/dcmitype/StillImage" />
        <dc:title></dc:title>
      </cc:Work>
    </rdf:RDF>
  </metadata>
  <path
     d="m 88.425,17.7111 -70.711,31.424 0,59.287 70.711,31.424 70.711,-31.424 0,-59.287 z"
     id="path12"
     style="fill:#212121;fill-opacity:1" />
  <rect
     transform="matrix(0.9138198,0.40611991,-0.9138198,0.40611991,0,0)"
     height="64.942017"
     width="64.942017"
     y="-20.352501"
     x="76.415535"
     id="rect14"
     style="fill:#ffffff" />
  <rect
     transform="matrix(0.9138198,0.40611991,-0.9138198,0.40611991,0,0)"
     height="41.526009"
     width="41.526009"
     y="-8.6444941"
     x="88.125526"
     id="rect16"
     style="fill:#f6aeb5;fill-opacity:1;stroke:#ca1528;stroke-opacity:1;stroke-width:3.48223583;stroke-miterlimit:4;stroke-dasharray:6.96447165, 3.48223583000000000;stroke-dashoffset:0" />
  <g
     id="g18"
     transform="translate(-170.715,-90.5353)"
     style="fill:#212121;fill-opacity:1">
    <path
       id="path20"
       d="m 363.18,119.71 20.393,0 q 3.7334,0 7.0467,3.1734 3.36,3.1267 3.36,7.6067 0,1.68 -1.2133,2.8467 -1.1667,1.1667 -2.6133,1.1667 -2.0067,0 -2.7533,-0.88667 -0.74667,-0.93334 -1.4467,-3.4067 -0.65334,-2.4733 -2.9867,-2.4733 l -19.367,0 q -1.4,0 -1.4,0.88667 0,0.56 0.60666,1.3067 l 29.073,37.193 q 2.1,2.7067 2.1,5.7867 0,3.5 -2.5667,6.16 -2.52,2.66 -5.6467,2.66 l -21.14,0 q -4.2,0 -7.3267,-3.1733 -3.08,-3.22 -3.08,-7.0467 0,-4.3867 4.1067,-4.3867 1.5867,0 2.7067,1.1667 1.12,1.12 1.12,2.66 0,1.26 0.84,2.1 0.88667,0.84 2.1933,0.84 l 19.507,0 q 1.26,0 1.26,-0.98 0,-0.46667 -0.60667,-1.2133 l -29.027,-37.193 q -2.0533,-2.66 -2.0533,-5.7867 0,-3.64 2.6133,-6.3 2.6133,-2.7067 6.3,-2.7067 z"
       style="fill:#212121;fill-opacity:1" />
    <path
       id="path22"
       d="m 411.9,169.97 0,-46.247 q 0,-1.6333 1.1667,-2.8 1.1667,-1.2133 2.7533,-1.2133 1.5867,0 2.7533,1.1667 1.1667,1.1667 1.1667,2.7533 l 0,46.34 q 0,1.54 1.1667,2.7067 1.1667,1.12 2.7533,1.12 l 16.053,0 q 1.6333,0 2.7533,-1.12 1.1667,-1.12 1.1667,-2.7067 l 0,-46.247 q 0,-1.68 1.12,-2.8467 1.1667,-1.1667 2.8,-1.1667 1.6333,0 2.7533,1.1667 1.1667,1.1667 1.1667,2.8467 l 0,46.153 q 0,4.8534 -3.5,8.3534 -3.4533,3.5 -8.26,3.5 l -16.053,0 q -4.8534,0 -8.3067,-3.4533 -3.4533,-3.4533 -3.4533,-8.3067 z"
       style="fill:#212121;fill-opacity:1" />
    <path
       id="path24"
       d="m 478.54,119.71 20.393,0 q 3.7333,0 7.0467,3.1734 3.36,3.1267 3.36,7.6067 0,1.68 -1.2133,2.8467 -1.1667,1.1667 -2.6133,1.1667 -2.0067,0 -2.7533,-0.88667 -0.74667,-0.93334 -1.4467,-3.4067 -0.65334,-2.4733 -2.9867,-2.4733 l -19.367,0 q -1.4,0 -1.4,0.88667 0,0.56 0.60667,1.3067 l 29.073,37.193 q 2.1,2.7067 2.1,5.7867 0,3.5 -2.5667,6.16 -2.52,2.66 -5.6467,2.66 l -21.14,0 q -4.2,0 -7.3267,-3.1733 -3.08,-3.22 -3.08,-7.0467 0,-4.3867 4.1067,-4.3867 1.5867,0 2.7067,1.1667 1.12,1.12 1.12,2.66 0,1.26 0.84,2.1 0.88667,0.84 2.1933,0.84 l 19.507,0 q 1.26,0 1.26,-0.98 0,-0.46667 -0.60667,-1.2133 l -29.027,-37.193 q -2.0533,-2.66 -2.0533,-5.7867 0,-3.64 2.6133,-6.3 2.6133,-2.7067 6.3,-2.7067 z"
       style="fill:#212121;fill-opacity:1" />
    <path
       id="path26"
       d="m 527.17,177.81 0,-54.18 q 0,-1.5867 1.12,-2.7533 1.1667,-1.1667 2.8,-1.1667 1.5867,0 2.7533,1.1667 1.1667,1.1667 1.1667,2.7533 l 0,23.1 23.893,0 0,-23.1 q 0,-1.5867 1.12,-2.7533 1.1667,-1.1667 2.8,-1.1667 1.6333,0 2.7533,1.1667 1.1667,1.1667 1.1667,2.8467 l 0,54.087 q 0,1.5867 -1.2133,2.7533 -1.1667,1.1667 -2.7067,1.1667 -1.68,0 -2.8,-1.12 -1.12,-1.1667 -1.12,-2.8 l 0,-23.24 -23.8,0 0,23.24 q 0,1.5867 -1.2133,2.7533 -1.1667,1.1667 -2.8,1.1667 -1.5867,0 -2.7533,-1.12 -1.1667,-1.1667 -1.1667,-2.8 z"
       style="fill:#212121;fill-opacity:1" />
    <path
       id="path28"
       d="m 357.1,198.96 6.5644,0 q 1.2017,0 2.2683,1.0215 1.0816,1.0064 1.0816,2.4485 0,0.54077 -0.39056,0.91631 -0.37554,0.37554 -0.84121,0.37554 -0.64593,0 -0.88627,-0.28541 -0.24034,-0.30043 -0.46567,-1.0966 -0.2103,-0.79614 -0.96138,-0.79614 l -6.2339,0 q -0.45065,0 -0.45065,0.28541 0,0.18025 0.19528,0.4206 l 9.3584,11.972 q 0.67597,0.87125 0.67597,1.8627 0,1.1266 -0.82619,1.9828 -0.81116,0.85623 -1.8176,0.85623 l -6.8048,0 q -1.3519,0 -2.3584,-1.0215 -0.99142,-1.0365 -0.99142,-2.2682 0,-1.412 1.3219,-1.412 0.51073,0 0.87125,0.37554 0.36051,0.36052 0.36051,0.85623 0,0.40558 0.27039,0.67597 0.28541,0.27039 0.70601,0.27039 l 6.279,0 q 0.40558,0 0.40558,-0.31546 0,-0.15021 -0.19528,-0.39056 l -9.3434,-11.972 q -0.66095,-0.85623 -0.66095,-1.8627 0,-1.1717 0.84121,-2.0279 0.8412,-0.87125 2.0279,-0.87125 z"
       style="fill:#212121;fill-opacity:1" />
    <path
       id="path30"
       d="m 374.05,198.96 10.215,0 q 0.49571,0 0.87125,0.37554 0.39056,0.37554 0.39056,0.88627 0,0.52575 -0.37554,0.91631 -0.37553,0.37554 -0.88627,0.37554 l -3.8155,0 0,14.886 3.8155,0 q 0.52576,0 0.88627,0.37553 0.37554,0.36052 0.37554,0.88628 0,0.52575 -0.37554,0.90129 -0.37553,0.36052 -0.88627,0.36052 l -10.215,0 q -0.52575,0 -0.90129,-0.36052 -0.36052,-0.37554 -0.36052,-0.90129 0,-0.52576 0.36052,-0.88628 0.37554,-0.37553 0.90129,-0.37553 l 3.8756,0 0,-14.886 -3.8756,0 q -0.52575,0 -0.90129,-0.37554 -0.36052,-0.37553 -0.36052,-0.88627 0,-0.54077 0.36052,-0.91631 Q 373.52425,198.96 374.05,198.96 Z"
       style="fill:#212121;fill-opacity:1" />
    <path
       id="path32"
       d="m 396.46,206.8 0,-0.64593 -2.6138,-3.7253 0,15.232 q 0,0.52575 -0.37554,0.90129 -0.36052,0.36052 -0.88627,0.36052 -0.52575,0 -0.90129,-0.37554 -0.36052,-0.37554 -0.36052,-0.88627 l 0,-18.702 3.2597,0 3.1095,4.5215 3.1996,-4.5215 3.1996,0 0,18.702 q 0,0.52575 -0.39056,0.90129 -0.37553,0.36052 -0.90129,0.36052 -0.51073,0 -0.88627,-0.37554 -0.37554,-0.37554 -0.37554,-0.88627 l 0,-15.172 -2.5537,3.6052 0,0.70602 q 0,0.51073 -0.37554,0.88627 -0.37554,0.37554 -0.88627,0.37554 -0.52576,0 -0.90129,-0.37554 -0.36052,-0.37554 -0.36052,-0.88627 z"
       style="fill:#212121;fill-opacity:1" />
    <path
       id="path34"
       d="m 409.95,217.66 0,-18.702 8.9528,0 q 1.5472,0 2.6588,1.1266 1.1266,1.1266 1.1266,2.6888 l 0,4.7318 q 0,1.5622 -1.1116,2.6738 -1.1116,1.1116 -2.6738,1.1116 l -6.3992,0 0,6.3691 q 0,0.52575 -0.37554,0.90129 -0.36052,0.36052 -0.88627,0.36052 -0.54078,0 -0.91631,-0.36052 -0.37554,-0.37554 -0.37554,-0.90129 z m 2.5537,-8.8928 6.3992,0 q 0.51073,0 0.88627,-0.36052 0.37554,-0.37554 0.37554,-0.90129 l 0,-4.7318 q 0,-0.52575 -0.37554,-0.88627 -0.37554,-0.37554 -0.88627,-0.37554 l -6.3992,0 0,7.2554 z"
       style="fill:#212121;fill-opacity:1" />
    <path
       id="path36"
       d="m 428.52,218.92 0,-18.702 q 0,-0.51073 0.37554,-0.88627 0.37554,-0.37554 0.88627,-0.37554 0.51073,0 0.88627,0.37554 0.37554,0.37554 0.37554,0.88627 l 0,16.178 8.9228,0 q 0.52575,0 0.90129,0.37553 0.39056,0.36052 0.39056,0.88628 0,0.52575 -0.39056,0.90129 -0.37554,0.36052 -0.90129,0.36052 l -11.446,0 z"
       style="fill:#212121;fill-opacity:1" />
    <path
       id="path38"
       d="m 458.53,201.51 -8.9228,0 0,6.1438 3.8455,0 q 0.51073,0 0.88627,0.37553 0.37554,0.37554 0.37554,0.88628 0,0.54077 -0.37554,0.91631 -0.36052,0.37554 -0.88627,0.37554 l -3.8455,0 0,6.1889 8.9528,0 q 0.51073,0 0.88627,0.37553 0.37554,0.36052 0.37554,0.88628 0,0.52575 -0.39056,0.90129 -0.37554,0.36052 -0.9013,0.36052 l -11.446,0 0,-19.964 11.446,0 q 0.52576,0 0.9013,0.39056 0.39056,0.37554 0.39056,0.90129 0,0.51074 -0.39056,0.88627 -0.37554,0.37554 -0.9013,0.37554 z"
       style="fill:#212121;fill-opacity:1" />
    <path
       id="path40"
       d="m 472.02,215.14 0,-14.886 q 0,-0.52575 0.37554,-0.90129 0.37554,-0.39056 0.88627,-0.39056 0.51073,0 0.88627,0.37554 0.37554,0.37554 0.37554,0.88627 l 0,14.916 q 0,0.49571 0.37554,0.87125 0.37554,0.36051 0.88627,0.36051 l 5.1674,0 q 0.52575,0 0.88627,-0.36051 0.37554,-0.36052 0.37554,-0.87125 l 0,-14.886 q 0,-0.54077 0.36052,-0.91631 0.37554,-0.37554 0.90129,-0.37554 0.52575,0 0.88627,0.37554 0.37554,0.37554 0.37554,0.91631 l 0,14.856 q 0,1.5622 -1.1266,2.6889 -1.1116,1.1266 -2.6588,1.1266 l -5.1674,0 q -1.5622,0 -2.6738,-1.1116 -1.1116,-1.1116 -1.1116,-2.6738 z"
       style="fill:#212121;fill-opacity:1" />
    <path
       id="path42"
       d="m 490.65,217.66 0,-18.702 8.9228,0 q 1.5472,0 2.6588,1.1266 1.1266,1.1266 1.1266,2.6888 l 0,1.4421 q 0,1.5773 -1.1116,2.7039 -1.1116,1.1116 -2.6738,1.1116 l -1.6073,0 5.1674,8.8627 q 0.24035,0.39056 0.24035,0.78112 0,0.51073 -0.39056,0.88627 -0.39056,0.36052 -0.88627,0.36052 -0.75108,0 -1.1416,-0.67597 l -5.9335,-10.215 -1.8176,0 0,9.6288 q 0,0.52575 -0.39056,0.90129 -0.37554,0.36052 -0.90129,0.36052 -0.52575,0 -0.90129,-0.36052 -0.36052,-0.37554 -0.36052,-0.90129 z m 2.5236,-12.152 6.3992,0 q 0.52575,0 0.88627,-0.36051 0.37554,-0.37554 0.37554,-0.9013 l 0,-1.4721 q 0,-0.52575 -0.37554,-0.88627 -0.36052,-0.37554 -0.88627,-0.37554 l -6.3992,0 0,3.9957 z"
       style="fill:#212121;fill-opacity:1" />
    <path
       id="path44"
       d="m 509.18,218.92 0,-18.702 q 0,-0.51073 0.37553,-0.88627 0.37554,-0.37554 0.88628,-0.37554 0.51073,0 0.88627,0.37554 0.37554,0.37554 0.37554,0.88627 l 0,16.178 8.9228,0 q 0.52576,0 0.9013,0.37553 0.39056,0.36052 0.39056,0.88628 0,0.52575 -0.39056,0.90129 -0.37554,0.36052 -0.9013,0.36052 l -11.446,0 z"
       style="fill:#212121;fill-opacity:1" />
    <path
       id="path46"
       d="m 536.14,198.96 6.5644,0 q 1.2017,0 2.2682,1.0215 1.0816,1.0064 1.0816,2.4485 0,0.54077 -0.39056,0.91631 -0.37554,0.37554 -0.84121,0.37554 -0.64593,0 -0.88627,-0.28541 -0.24035,-0.30043 -0.46567,-1.0966 -0.2103,-0.79614 -0.96138,-0.79614 l -6.2339,0 q -0.45065,0 -0.45065,0.28541 0,0.18025 0.19528,0.4206 l 9.3584,11.972 q 0.67597,0.87125 0.67597,1.8627 0,1.1266 -0.82619,1.9828 -0.81116,0.85623 -1.8176,0.85623 l -6.8048,0 q -1.3519,0 -2.3584,-1.0215 -0.99142,-1.0365 -0.99142,-2.2682 0,-1.412 1.3219,-1.412 0.51074,0 0.87125,0.37554 0.36052,0.36052 0.36052,0.85623 0,0.40558 0.27039,0.67597 0.28541,0.27039 0.70601,0.27039 l 6.279,0 q 0.40558,0 0.40558,-0.31546 0,-0.15021 -0.19528,-0.39056 l -9.3434,-11.972 q -0.66095,-0.85623 -0.66095,-1.8627 0,-1.1717 0.84121,-2.0279 0.8412,-0.87125 2.0279,-0.87125 z"
       style="fill:#212121;fill-opacity:1" />
    <path
       id="path48"
       d="m 551.79,217.66 0,-17.44 q 0,-0.51073 0.36052,-0.88627 0.37554,-0.37554 0.90129,-0.37554 0.51073,0 0.88627,0.37554 0.37554,0.37554 0.37554,0.88627 l 0,7.4357 7.691,0 0,-7.4357 q 0,-0.51073 0.36052,-0.88627 0.37554,-0.37554 0.90129,-0.37554 0.52576,0 0.88627,0.37554 0.37554,0.37554 0.37554,0.91631 l 0,17.41 q 0,0.51073 -0.39056,0.88627 -0.37554,0.37554 -0.87125,0.37554 -0.54077,0 -0.90129,-0.36052 -0.36052,-0.37554 -0.36052,-0.90129 l 0,-7.4807 -7.661,0 0,7.4807 q 0,0.51073 -0.39056,0.88627 -0.37554,0.37554 -0.90129,0.37554 -0.51073,0 -0.88627,-0.36052 -0.37554,-0.37554 -0.37554,-0.90129 z"
       style="fill:#212121;fill-opacity:1" />
    <path
       id="path50"
       d="m 579.76,200.81 2.779,5.6631 q 0.58584,1.1567 0.58584,2.5086 0,1.3219 -0.58584,2.4936 l -2.779,5.603 q -0.88627,1.8476 -3.0043,1.8476 -1.0064,0 -1.8176,-0.52576 -0.79614,-0.52575 -1.2017,-1.3219 l -2.794,-5.603 q -0.5558,-1.0966 -0.5558,-2.4936 0,-1.397 0.5558,-2.5086 l 2.794,-5.6631 q 0.94636,-1.8476 3.0193,-1.8476 2.103,0 3.0043,1.8476 z m -3.8455,1.2618 -2.6138,5.3176 q -0.36052,0.79614 -0.36052,1.5622 0,0.82618 0.36052,1.5773 l 2.6889,5.3777 q 0.2103,0.49572 0.76609,0.49572 0.48069,0 0.73606,-0.49572 l 2.7039,-5.3777 q 0.37554,-0.79614 0.37554,-1.5773 0,-0.82619 -0.37554,-1.5622 l -2.6438,-5.3176 q -0.25537,-0.58584 -0.79615,-0.58584 -0.54077,0 -0.8412,0.58584 z"
       style="fill:#212121;fill-opacity:1" />
    <path
       id="path52"
       d="m 589.01,217.66 0,-18.702 8.9228,0 q 1.5472,0 2.6588,1.1266 1.1266,1.1266 1.1266,2.6888 l 0,1.4421 q 0,1.5773 -1.1116,2.7039 -1.1116,1.1116 -2.6738,1.1116 l -1.6073,0 5.1674,8.8627 q 0.24034,0.39056 0.24034,0.78112 0,0.51073 -0.39056,0.88627 -0.39056,0.36052 -0.88627,0.36052 -0.75107,0 -1.1416,-0.67597 l -5.9335,-10.215 -1.8176,0 0,9.6288 q 0,0.52575 -0.39056,0.90129 -0.37554,0.36052 -0.9013,0.36052 -0.52575,0 -0.90129,-0.36052 -0.36052,-0.37554 -0.36052,-0.90129 z m 2.5236,-12.152 6.3992,0 q 0.52576,0 0.88627,-0.36051 0.37554,-0.37554 0.37554,-0.9013 l 0,-1.4721 q 0,-0.52575 -0.37554,-0.88627 -0.36051,-0.37554 -0.88627,-0.37554 l -6.3992,0 0,3.9957 z"
       style="fill:#212121;fill-opacity:1" />
    <path
       id="path54"
       d="m 607.52,202.4 0,-3.4099 12.738,0 0,3.4399 q 0,0.52575 -0.37554,0.90129 -0.37554,0.36052 -0.88627,0.36052 -0.52576,0 -0.91632,-0.37554 -0.37554,-0.37554 -0.37554,-0.88627 l 0,-0.91632 -2.5537,0 0,16.148 q 0,0.52575 -0.37554,0.90129 -0.37554,0.36052 -0.88627,0.36052 -0.54078,0 -0.91631,-0.36052 -0.37554,-0.37554 -0.37554,-0.90129 l 0,-16.148 -2.5537,0 0,0.88627 q 0,0.52576 -0.37554,0.9013 -0.36051,0.36051 -0.88627,0.36051 -0.52575,0 -0.90129,-0.36051 -0.36052,-0.37554 -0.36052,-0.9013 z"
       style="fill:#212121;fill-opacity:1" />
    <path
       id="path56"
       d="m 637.56,201.51 -8.9228,0 0,6.1438 3.8455,0 q 0.51073,0 0.88627,0.37553 0.37554,0.37554 0.37554,0.88628 0,0.54077 -0.37554,0.91631 -0.36052,0.37554 -0.88627,0.37554 l -3.8455,0 0,6.1889 8.9528,0 q 0.51074,0 0.88627,0.37553 0.37554,0.36052 0.37554,0.88628 0,0.52575 -0.39056,0.90129 -0.37554,0.36052 -0.90129,0.36052 l -11.446,0 0,-19.964 11.446,0 q 0.52575,0 0.90129,0.39056 0.39056,0.37554 0.39056,0.90129 0,0.51074 -0.39056,0.88627 -0.37554,0.37554 -0.90129,0.37554 z"
       style="fill:#212121;fill-opacity:1" />
    <path
       id="path58"
       d="m 657.39,200.25 0,18.672 -3.3949,0 -6.7897,-15.502 0,14.24 q 0,0.52575 -0.37554,0.90129 -0.36051,0.36052 -0.88627,0.36052 -0.52575,0 -0.90129,-0.36052 -0.36052,-0.37554 -0.36052,-0.90129 l 0,-18.702 3.3498,0 6.8048,15.472 0,-14.18 q 0,-0.52575 0.37554,-0.90129 0.39056,-0.39056 0.91631,-0.39056 0.52575,0 0.88627,0.37554 0.37554,0.37554 0.37554,0.91631 z"
       style="fill:#212121;fill-opacity:1" />
    <path
       id="path60"
       d="m 674.7,201.51 -8.9228,0 0,6.1438 3.8455,0 q 0.51073,0 0.88627,0.37553 0.37554,0.37554 0.37554,0.88628 0,0.54077 -0.37554,0.91631 -0.36052,0.37554 -0.88627,0.37554 l -3.8455,0 0,6.1889 8.9528,0 q 0.51074,0 0.88628,0.37553 0.37553,0.36052 0.37553,0.88628 0,0.52575 -0.39056,0.90129 -0.37554,0.36052 -0.90129,0.36052 l -11.446,0 0,-19.964 11.446,0 q 0.52575,0 0.90129,0.39056 0.39056,0.37554 0.39056,0.90129 0,0.51074 -0.39056,0.88627 -0.37554,0.37554 -0.90129,0.37554 z"
       style="fill:#212121;fill-opacity:1" />
    <path
       id="path62"
       d="m 681.85,217.66 0,-18.702 8.9228,0 q 1.5472,0 2.6588,1.1266 1.1266,1.1266 1.1266,2.6888 l 0,1.4421 q 0,1.5773 -1.1116,2.7039 -1.1116,1.1116 -2.6738,1.1116 l -1.6073,0 5.1674,8.8627 q 0.24035,0.39056 0.24035,0.78112 0,0.51073 -0.39056,0.88627 -0.39057,0.36052 -0.88628,0.36052 -0.75107,0 -1.1416,-0.67597 l -5.9335,-10.215 -1.8176,0 0,9.6288 q 0,0.52575 -0.39056,0.90129 -0.37554,0.36052 -0.90129,0.36052 -0.52576,0 -0.9013,-0.36052 -0.36051,-0.37554 -0.36051,-0.90129 z m 2.5236,-12.152 6.3992,0 q 0.52576,0 0.88628,-0.36051 0.37553,-0.37554 0.37553,-0.9013 l 0,-1.4721 q 0,-0.52575 -0.37553,-0.88627 -0.36052,-0.37554 -0.88628,-0.37554 l -6.3992,0 0,3.9957 z"
       style="fill:#212121;fill-opacity:1" />
    <g
       transform="matrix(0.94119612,0,0,0.94119612,35.474134,9.2968757)"
       id="text4167"
       style="font-style:normal;font-weight:normal;font-size:101.77484131px;line-height:125%;font-family:sans-serif;letter-spacing:0px;word-spacing:0px;writing-mode:lr-tb;fill:#212121;fill-opacity:1;stroke:none;stroke-width:1px;stroke-linecap:butt;stroke-linejoin:miter;stroke-opacity:1">
      <path
         id="path4172"
         style="font-style:normal;font-variant:normal;font-weight:normal;font-stretch:normal;font-family:'OCR A Extended';-inkscape-font-specification:'OCR A Extended';fill:#212121;fill-opacity:1"
         d="m 625.77771,138.72996 -24.10195,20.77241 0,5.16825 q 0,1.68962 -1.24237,2.93199 -1.24237,1.24237 -2.93199,1.24237 -1.73931,0 -2.98168,-1.24237 -1.19268,-1.24237 -1.19268,-2.93199 l 0,-6.90757 q 0,-2.23626 1.29207,-3.37924 l 23.85348,-20.52393 0,-3.08107 -4.17436,-3.77681 -22.21355,19.03309 q -1.49085,1.29207 -3.08108,1.29207 -1.54054,0 -2.8326,-1.19268 -1.29206,-1.19267 -1.29206,-3.08107 0,-2.03749 1.09328,-2.98169 l 25.64249,-21.81599 q 1.14298,-0.9442 2.78291,-0.9442 1.54053,0 2.53443,0.84481 l 8.5475,7.45421 q 1.44114,1.09329 1.44114,3.13077 l 0,7.15604 q 0,1.8884 -1.14298,2.8326 z m -28.3757,36.0287 q 1.73932,0 2.93199,1.29206 1.24237,1.24237 1.24237,2.98168 0,1.73932 -1.24237,2.98169 -1.19267,1.19267 -2.93199,1.19267 -1.73931,0 -2.98168,-1.19267 -1.19268,-1.24237 -1.19268,-2.98169 0,-1.73931 1.19268,-2.98168 1.24237,-1.29206 2.98168,-1.29206 z" />
    </g>
  </g>
</svg>
